<?xml version="1.0" encoding="utf-8"?>
<!-- Generator: Adobe Illustrator 23.0.5, SVG Export Plug-In . SVG Version: 6.00 Build 0)  -->
<svg version="1.1" id="Capa_1" xmlns="http://www.w3.org/2000/svg" xmlns:xlink="http://www.w3.org/1999/xlink" x="0px" y="0px"
	 viewBox="0 0 32 32" style="enable-background:new 0 0 32 32;" xml:space="preserve">
<style type="text/css">
	.st0{fill:#EF7D0D;}
</style>
<g>
	<path class="st0" d="M26.35,27.76c-1.4,1.46-3,2.55-4.82,3.27c-1.3,0.52-2.63,0.83-3.99,0.96h8.79c3.12,0,5.67-2.55,5.67-5.67V21.3
		l-2.37-2.27C29.7,22.49,28.61,25.41,26.35,27.76z"/>
	<path class="st0" d="M4.86,27.39c-1.52-1.46-2.69-3.11-3.5-4.95c-0.74-1.66-1.16-3.37-1.29-5.11C0.05,17.47,0.03,17.61,0,17.75
		v8.58C0,29.45,2.55,32,5.67,32h9.12c-1.55-0.14-3.1-0.51-4.65-1.14C8.23,30.08,6.47,28.93,4.86,27.39z"/>
	<path class="st0" d="M32,14.45V5.67C32,2.55,29.45,0,26.33,0H5.67C2.55,0,0,2.55,0,5.67v9.91c0.01,0.03,0.01,0.06,0.02,0.1
		c0.05-1.56,0.33-3.11,0.87-4.64c0.66-1.88,1.74-3.6,3.22-5.14c2-2.08,4.15-3.45,6.46-4.1c2.3-0.65,4.56-0.64,6.76,0.03l-0.71,5.5
		c-1.64-0.5-3.24-0.52-4.8-0.07c-1.55,0.45-2.9,1.27-4.04,2.46c-0.9,0.94-1.53,1.99-1.88,3.15c-0.35,1.16-0.45,2.35-0.29,3.56
		c0.16,1.21,0.54,2.4,1.15,3.56c0.61,1.16,1.41,2.22,2.41,3.18c1.04,1,2.18,1.77,3.4,2.3c1.23,0.54,2.45,0.83,3.68,0.89
		s2.42-0.13,3.57-0.57c1.16-0.43,2.1-1.21,3.08-2.06c2.4-2.06,2.56-6.62,0.98-10.22l-4.29,4.47l-3.16-3.03l7.71-8.04L32,14.45z"/>
</g>
</svg>
